<svg width="344" height="102" viewBox="0 0 344 102" fill="currentColor" xmlns="http://www.w3.org/2000/svg">
  <path d="M128.791 23H139.13V78.6714H128.791V23Z" />
  <path
    d="M173.355 35.7249C178.71 35.7249 183.005 37.289 186.239 40.4172C189.473 43.5454 191.09 48.1847 191.09 54.3351V78.6714H181.149V55.6076C181.149 51.8961 180.274 49.1126 178.524 47.2568C176.775 45.3481 174.283 44.3937 171.049 44.3937C167.39 44.3937 164.5 45.5072 162.38 47.734C160.259 49.9079 159.198 53.0626 159.198 57.1982V78.6714H149.257V36.2021H158.721V41.6897C160.365 39.7279 162.433 38.2434 164.925 37.236C167.417 36.2286 170.227 35.7249 173.355 35.7249Z"
  />
  <path
    d="M238.714 36.2021L220.501 78.6714H210.242L192.029 36.2021H202.368L215.57 67.6962L229.17 36.2021H238.714Z"
  />
  <path
    d="M279.71 57.6754C279.71 58.3646 279.657 59.3455 279.551 60.618H246.227C246.811 63.7462 248.322 66.2382 250.761 68.0939C253.253 69.8966 256.328 70.7979 259.986 70.7979C264.652 70.7979 268.496 69.2603 271.518 66.1851L276.847 72.309C274.938 74.5889 272.525 76.312 269.609 77.4785C266.693 78.6449 263.406 79.2282 259.748 79.2282C255.082 79.2282 250.973 78.3003 247.42 76.4446C243.868 74.5889 241.111 72.0174 239.149 68.7301C237.24 65.3898 236.286 61.6254 236.286 57.4368C236.286 53.3012 237.214 49.5897 239.07 46.3025C240.978 42.9622 243.603 40.3642 246.943 38.5085C250.283 36.6528 254.048 35.7249 258.236 35.7249C262.372 35.7249 266.057 36.6528 269.291 38.5085C272.578 40.3112 275.123 42.8827 276.926 46.2229C278.782 49.5102 279.71 53.3277 279.71 57.6754ZM258.236 43.678C255.055 43.678 252.351 44.6323 250.124 46.5411C247.95 48.3968 246.625 50.8887 246.148 54.017H270.246C269.821 50.9418 268.522 48.4498 266.349 46.5411C264.175 44.6323 261.471 43.678 258.236 43.678Z"
  />
  <path
    d="M294.747 42.4055C297.61 37.9518 302.647 36.5202 309.857 36.5202V44.4733C309.009 44.3142 308.24 44.2347 307.551 44.2347C303.681 44.2347 300.658 46.0904 298.485 48.3703C296.311 50.5971 295.224 53.8314 295.224 58.073V78.6714H285.282V36.2021H294.747V42.4055Z"
  />
  <path
    d="M343.397 76.3651C342.23 77.3194 340.799 78.0352 339.102 78.5124C337.459 78.9896 335.709 79.2282 333.853 79.2282C329.187 79.2282 325.582 78.0087 323.037 75.5698C320.492 73.1308 319.22 69.5784 319.22 64.9126V44.4733H312.221V36.5202H319.22V26.8175H329.161V36.5202H340.534V44.4733H329.161V64.6741C329.161 66.7419 329.665 68.3325 330.672 69.4459C331.679 70.5063 333.137 71.0365 335.046 71.0365C337.273 71.0365 339.129 70.4533 340.613 69.2868L343.397 76.3651Z"
  />
  <path
    fill-rule="evenodd"
    clip-rule="evenodd"
    d="M102.791 51C102.791 79.1665 79.9575 102 51.791 102C23.6245 102 0.791016 79.1665 0.791016 51C0.791016 22.8335 23.6245 0 51.791 0C79.9575 0 102.791 22.8335 102.791 51ZM86.7631 51C86.7631 70.3142 71.1058 85.9715 51.7916 85.9715C50.4526 85.9715 49.1311 85.8962 47.8312 85.7497C65.4072 83.9026 79.105 69.0367 79.105 50.9714C79.105 32.9963 65.5435 18.1886 48.094 16.2218C49.3091 16.0941 50.5427 16.0286 51.7916 16.0286C71.1058 16.0286 86.7631 31.6859 86.7631 51ZM40.498 75.6328C52.0244 73.5974 60.791 63.3434 60.791 51C60.791 38.6566 52.0244 28.4026 40.498 26.3672C41.8928 26.1258 43.3271 26 44.7909 26C58.598 26 69.7909 37.1929 69.7909 51C69.7909 64.8071 58.598 76 44.7909 76C43.3271 76 41.8928 75.8742 40.498 75.6328Z"
  />
</svg>